<?xml version="1.0" encoding="UTF-8"?>
<svg width="859.39" height="326.77" version="1.1" viewBox="0 0 858.39 326.39" xml:space="preserve" xmlns="http://www.w3.org/2000/svg"><path d="m283.58 17.056c-7.8452-0.18562-16.099 0.87701-22.174 0.87701h-113.33c0 17.632 4.9457 43.578-14.255 53.186-11.426 5.7169-29.573 2.4083-42.052 2.4083v58.445c0 6.3128-2.3445 18.332 0.42875 24.006 1.1055 2.2608 5.353 2.2554 7.4114 3.3744 3.6735 1.9985 6.6434 5.4639 8.8244 8.9691 9.5465 15.34 18.045 31.413 27.115 47.041 6.4838 11.172 14.339 22.318 19.414 34.212 3.697 8.6648-0.73421 18.39-9.0248 22.538-6.0711 3.037-13.381 2.4083-19.957 2.4083h-34.212c0 10.112-2.2301 23.894 7.1553 30.79 9.8465 7.2343 29.669 3.4217 41.311 3.4217h145.4c8.307 0 16.506-1.479 20.292-9.9784 4.8253-10.833 1.8028-27.529 1.8028-39.201v-30.648c0-4.2658 1.0588-10.216-0.43017-14.255-1.5302-4.1503-6.4942-7.637-9.5482-10.691l-19.244-19.244c-2.7711-2.7711-5.7412-6.9014-9.2656-8.7046-3.146-1.6101-7.1759 0.70808-10.691-0.66679-3.9721-1.5538-6.0434-6.1716-9.9784-7.4838-3.0484-1.0157-7.6698 1.6205-10.691 2.2969-6.7974 1.5217-13.706 2.1432-20.67 1.6635-31.201-2.1482-58.213-27.716-63.014-58.379-1.4169-9.0511-1.2299-18.183 1.115-27.084 14.933-56.685 89.043-70.784 123.56-23.521 10.137 13.882 14.235 31.585 12.346 48.467-0.63718 5.6976-5.0788 13.056-4.4936 18.531 0.41626 3.8959 5.2087 6.4546 6.7724 9.9784 1.5752 3.5495-0.35558 6.5915 0.53178 9.9784 1.3214 5.0441 9.5768 11.349 13.702 14.255v-101.21c0-11.308 3.6621-30.091-4.4282-39.173-4.4432-4.988-11.88-6.4212-19.726-6.6068zm-142.63 5.1535c-14.535 14.535-33.076 28.826-44.903 45.616 13.536 0 38.794 4.982 44.808-11.404 2.0719-5.6455 0.80741-13.302 0.80741-19.244 0-4.576 1.067-10.726-0.71274-14.968zm80.707 16.964c-1.9831 0.03764-3.9474 0.18251-5.869 0.44407-10.663 1.4514-20.216 4.6335-29.222 10.641-6.687 4.4602-12.406 10.154-16.852 16.854-29.324 44.179 6.9077 105.43 60.33 98.867 9.2692-1.1382 18.456-4.2582 26.371-9.2253 46.113-28.942 35.082-100.82-17.106-115.29-5.5893-1.5497-11.702-2.4001-17.652-2.2872zm26.285 31.656c3.7997 0.10201 7.4677 0.73666 8.4513 2.2106 1.7676 2.6486 0.73363 8.1243 0.73363 11.178v29.222c0 3.9928 2.088 16.922-2.244 18.814-3.0213 1.3193-15.726 1.7257-17.693-1.2222-1.7676-2.6486-0.73222-8.1229-0.73222-11.177v-29.222c0-3.9928-2.0894-16.924 2.2426-18.815 1.5107-0.65964 5.4423-1.0904 9.242-0.98837zm-5.7827 6.2616v49.892h9.2656v-49.892zm-20.283 5.1799c3.5527 0.08931 6.9623 0.69387 8.0378 2.2566 1.563 2.2715 0.84082 6.3473 0.84082 8.9566v20.67c0 4.1239 2.172 16.913-2.8941 18.304-3.2294 0.88666-15.014 1.6158-17.043-1.4255-1.4126-2.1161-0.73221-5.9105-0.73221-8.326v-20.67c0-4.2814-2.2504-17.395 2.8927-18.935 1.6496-0.49429 5.3454-0.92034 8.8982-0.83107zm-6.0889 6.224v38.488h9.2656v-38.488zm-18.803 7.7246c2.8578 0.18023 5.5644 0.82608 6.6653 2.4793 2.5088 3.7683 0.73362 13.164 0.73362 17.593 0 4.2879 2.1091 15.121-3.5957 16.23-3.31 0.6429-14.27 1.6159-16.342-1.4895-1.3179-1.9743-0.73222-5.3639-0.73222-7.6133 0-6.4874-2.4201-18.892 0.42875-24.72 0.8895-1.8182 3.5127-1.9403 5.2732-2.1605 1.7027-0.21312 4.7109-0.49903 7.5687-0.3188zm-7.5687 6.5302v24.233h9.2656v-24.233zm93.369 33.499c-6.461 12.09-16.882 20.938-28.51 27.797 7.0889 15.157 19.989-2.1696 26.371-8.5529 2.7811-2.7818 7.023-5.9051 7.8555-9.9784 0.86098-4.2123-2.2106-7.6157-5.7173-9.2656zm7.1274 19.39c-5.0876 0-13.621 12.049-17.106 15.534 5.7597 8.1766 14.313 15.026 21.382 22.095l14.968 14.968c4.1916 4.1916 9.1139 11.271 14.968 13.076 6.8345 2.1076 16.773-6.84 16.091-13.789-0.52102-5.3078-6.191-9.3441-9.6763-12.829l-27.797-27.797c-2.7441-2.744-8.6855-11.258-12.829-11.258zm-198.35 7.4587c-1.2597 0.0212-2.6108 0.24326-4.0676 0.70022-7.4146 2.3257-11.305 13.295-14.862 19.492-10.518 18.324-20.978 36.705-31.749 54.881-4.2348 7.146-11.766 16.574-5.9469 24.879 5.3087 7.5764 17.458 5.056 25.474 5.056h46.885c-1.871-2.216-3.569-4.3467-4.8013-5.9261-10.187 1.6863-18.483-5.7738-22.728-16.102-7.2562-17.588 3.7325-62.727 6.2268-55.782 8.3424 23.218 23.918 31.053 30.279 41.633 5.9051 9.8108-0.90351 23.811-6.9729 27.358-1.686-2.1856-3.8487-5.0345-6.1961-8.4944-2.5583-5.1488 1.0677-19.266 1.0677-19.266-3.0679 6.0807-4.0544 10.019-4.1901 12.984-2.0155-3.308-4.3362-7.4853-6.3089-11.691 0.32294 5e-3 -0.0372-0.44612 2.7869-16.45 0 0-4.7217 6.6783-4.5716 11.6-2.6896-6.9373-4.9102-15.109-6.0486-24.842 0 0-2.092 14.089 5.6992 33.314-1.7415-0.57233-6.5866-2.9335-10.07-7.488 1.2402 5.321 6.5565 9.7428 12.41 12.598 2.968 6.3814 6.496 12.978 12.094 19.716-0.0182 6e-3 -0.0374 0.0116-0.0556 0.0181 3.7972 4.3255 8.0508 6.165 9.9784 6.8198h1.5355c7.4503 0 18.708 2.0985 25.659-0.71969 11.164-4.5274 7.3336-15.867 2.8426-23.514-12.506-21.293-24.557-42.854-37.063-64.147-4.1866-7.1289-8.4885-16.777-17.306-16.628zm104.56 41.755c4.5366 0.15592 9.096 0.53034 13.247 0.53177 2.5309 7e-4 6.8236-0.60035 8.532 1.7916 1.4362 2.0099 0.73363 5.8547 0.73363 8.1868v21.382c0 2.5488 0.9412 7.3802-2.244 8.326-7.8908 2.3428-19.448 0.22691-27.691 0.22691-2.2459 0-6.9419 0.86632-8.5334-1.1429-1.5702-1.9829-0.73222-6.4635-0.73222-8.8355v-22.095c2e-3 -3.3128-0.39231-6.7441 3.5762-7.5952 4.0605-0.87026 8.5754-0.9327 13.112-0.77678zm-10.986 6.9464v27.797h27.797v-27.797zm55.534 2.4487c2.5689 0.098 5.1763 0.40231 7.1873 0.40231h32.073c1.8923 0 16.141-0.69933 10.97 4.4602-2.6656 2.6592-10.352 1.2417-13.821 1.2417-13.261 0-29.021 2.3652-42.021-0.16286-2.6272-0.51104-4.5584-3.6913-1.3489-5.1103 1.8599-0.82178 4.3915-0.92906 6.9604-0.83106zm-1.7248 16.527c1.8957 0.0534 3.8202 0.26867 5.3484 0.26867 7.5551 0 15.265-0.44976 22.804 0.0307 2.29 0.14612 6.241 2.4794 3.1364 4.9391-1.9814 1.5694-6.4628 0.73223-8.8341 0.73223-8.1744 0-19.17 1.947-27.042-0.22691-2.5915-0.71559-3.2587-3.8346-0.59162-5.0463 1.4169-0.64324 3.2842-0.75079 5.1799-0.69744zm-45.014 22.293c5.3498 0.14445 10.883 0.78334 15.438 0.78374 2.5409 0 6.8485-0.71232 8.532 1.7345 1.4219 2.0655 0.73363 5.869 0.73363 8.2439v21.382c0 2.5488 0.9412 7.3802-2.244 8.326-7.8908 2.3428-19.448 0.2269-27.691 0.2269-2.2459 0-6.9419 0.86633-8.5334-1.1429-1.4782-1.866-0.73222-5.8976-0.73222-8.1228v-22.095c0-2.9807-0.71374-7.1634 2.8927-8.2439 1.9396-0.58125 4.0928-0.89211 6.359-1.0302 1.6996-0.10351 3.4621-0.11078 5.2453-0.0626zm-8.7951 7.1984v27.797h27.797v-27.797zm55.534 2.4487c2.5688 0.098 5.1763 0.40231 7.1873 0.40231h32.073c1.8923 0 16.141-0.69932 10.97 4.4602-2.6656 2.6592-10.352 1.2417-13.821 1.2417-13.261 0-29.021 2.3652-42.021-0.16287-2.6272-0.51103-4.5584-3.6913-1.3489-5.1103 1.8602-0.82178 4.3916-0.92907 6.9604-0.83106zm-1.7498 16.534c1.898 0.0512 3.8236 0.26171 5.3734 0.26171 7.7375 0 15.802-0.65958 23.507 0.0417 2.3342 0.2124 5.0805 2.8154 2.4334 4.9266-1.9722 1.573-6.47 0.73361-8.8341 0.73361-8.1801 0-19.162 1.9413-27.042-0.2269-2.6065-0.71702-3.3999-3.836-0.64871-5.0463 1.4433-0.63434 3.314-0.74161 5.2119-0.69048z" fill="#89b264"/><g fill="#89b264" stroke-width=".99999" aria-label="Climate RAG"><path d="m456.27 142.23q-2.2082 1.6562-6.6247 3.8644-4.2785 2.0702-10.213 3.5884-5.9346 1.5182-12.973 1.3802-11.731-0.13802-21.116-4.1404-9.247-4.0024-15.872-10.903-6.4867-7.0388-9.9371-16.01-3.4504-9.109-3.4504-19.322 0-11.317 3.5884-20.84t10.213-16.424q6.6247-7.0388 15.596-10.903 9.109-3.8644 20.012-3.8644 9.247 0 16.7 2.4843t12.559 5.6586l-5.9346 14.216q-4.0024-2.7603-9.9371-5.2446-5.7966-2.6223-12.973-2.6223-6.9008 0-13.111 2.7603-6.2107 2.7603-11.041 7.8669-4.6925 4.9685-7.4528 11.593-2.6223 6.6247-2.6223 14.492t2.4843 14.63q2.4843 6.7627 7.0388 11.731 4.5545 4.8305 11.041 7.5908 6.4867 2.7603 14.492 2.7603 7.7288 0 13.525-2.3462 5.9346-2.3463 9.661-5.3826z" style="font-variation-settings:'wght' 522"/><path d="m474.9 42.587h14.492v107.38h-14.492z" style="font-variation-settings:'wght' 522"/><path d="m511.06 91.997h14.492v57.966h-14.492zm-0.69008-20.702q0-3.4504 2.6223-5.6586 2.7603-2.2082 5.7966-2.2082 3.1743 0 5.6586 2.3463 2.4843 2.2082 2.4843 5.5206 0 3.4504-2.4843 5.6586-2.4843 2.0702-5.6586 2.0702-3.0363 0-5.7966-2.0702-2.6223-2.2082-2.6223-5.6586z" style="font-variation-settings:'wght' 522"/><path d="m560.33 91.997 1.2421 12.283-0.55206-0.9661q3.1744-6.4867 8.971-10.075t13.387-3.5884q4.8305 0 8.5569 1.5182 3.7264 1.3802 6.2107 4.2785 2.4843 2.7603 3.3124 6.9007l-0.82809 0.41405q3.5884-6.2107 9.247-9.661 5.7966-3.4504 12.145-3.4504 8.5569 0 13.525 4.8305 5.1066 4.8305 5.2446 12.421v43.061h-14.354v-37.54q-0.13801-4.2785-1.9322-7.1768-1.7942-2.8983-6.4867-3.1744-4.9685 0-8.833 3.1744-3.7264 3.0363-5.7966 7.8668-1.9322 4.8305-2.0702 10.351v26.499h-14.492v-37.54q-0.13802-4.2785-2.0702-7.1768-1.9322-2.8983-6.6247-3.1744-4.9685 0-8.6949 3.1744-3.5884 3.0363-5.6586 8.0049-2.0702 4.8305-2.0702 10.213v26.499h-14.492v-57.966z" style="font-variation-settings:'wght' 522"/><path d="m686.62 151.34q-8.1429 0-14.768-3.3124-6.6247-3.4504-10.489-10.213-3.8644-6.7627-3.8644-16.838 0-9.661 4.0024-16.7 4.0024-7.1768 10.765-10.903 6.7627-3.8644 14.63-3.8644 8.2809 0 13.525 3.4504 5.3826 3.4504 8.2809 8.1429l-0.82809 2.2082 1.3802-11.317h13.387v57.966h-14.492v-14.492l1.5182 3.5884q-0.55206 0.96611-2.3463 3.0363-1.7942 1.9322-4.6925 4.1404-2.8983 2.2082-6.9008 3.7264-4.0024 1.3802-9.109 1.3802zm4.0024-11.869q4.4165 0 8.0049-1.5182 3.5884-1.6562 5.9346-4.5545 2.4843-3.0363 3.5884-7.1768v-12.145q-1.1041-3.7264-3.7264-6.4867-2.6223-2.8983-6.3487-4.5545-3.5884-1.6562-8.0049-1.6562-4.8305 0-8.971 2.4843-4.1404 2.3462-6.6247 6.6247-2.3462 4.2785-2.3462 9.7991 0 5.3826 2.4843 9.7991 2.6223 4.4165 6.7627 6.9008 4.2785 2.4843 9.247 2.4843z" style="font-variation-settings:'wght' 522"/><path d="m749.83 66.602h14.492v25.533h15.458v11.317h-15.458v46.511h-14.492v-46.511h-10.213v-11.317h10.213z" style="font-variation-settings:'wght' 522"/><path d="m822.29 151.34q-9.9371 0-17.252-3.8644-7.1768-4.0024-11.041-10.903-3.8644-7.0388-3.8644-16.01 0-8.6949 4.2785-15.596 4.4165-7.0388 11.731-11.179 7.4528-4.2785 16.562-4.2785 11.731 0 19.322 6.9008 7.7288 6.7627 10.351 19.046l-47.063 16.148-3.3124-8.2809 37.402-13.525-3.0363 1.9322q-1.5182-4.2785-5.1066-7.4528-3.5884-3.3124-9.661-3.3124-5.1066 0-8.971 2.4843-3.8644 2.3463-6.0727 6.6247-2.2082 4.1404-2.2082 9.661 0 5.7966 2.3463 10.213 2.3462 4.2785 6.4867 6.7627 4.2785 2.3462 9.523 2.3462 3.5884 0 6.9008-1.2421 3.4504-1.3802 6.4867-3.4504l6.6247 10.627q-4.5545 2.8983-9.9371 4.6925-5.3826 1.6562-10.489 1.6562z" style="font-variation-settings:'wght' 522"/><path d="m409.9 174.46q8.0049 0 14.63 2.0702 6.7627 2.0702 11.593 6.2107 4.8305 4.0024 7.4528 9.9371 2.7603 5.9346 2.7603 13.525 0 5.9346-1.7942 11.869-1.7942 5.7966-5.9346 10.489-4.0024 4.6925-10.489 7.5908-6.4867 2.8983-16.148 2.8983h-14.63v35.608h-15.044v-100.2zm1.7942 50.099q5.6586 0 9.247-1.6562 3.7264-1.7942 5.7966-4.4165 2.2082-2.7603 3.0363-5.7966 0.96611-3.1744 0.96611-5.9346t-0.96611-5.7966q-0.82809-3.0363-2.8983-5.7966-2.0702-2.7603-5.6586-4.4165-3.4504-1.7942-8.6949-1.7942h-15.182v35.608zm16.976 8.833 25.947 41.266h-17.528l-26.223-40.852z" style="font-variation-settings:'wght' 522"/><path d="m463.86 274.66 44.165-104.34h0.82809l44.165 104.34h-17.252l-31.881-80.739 10.765-7.1768-36.022 87.916zm27.051-37.54h35.332l5.1066 12.973h-44.993z" style="font-variation-settings:'wght' 522"/><path d="m646.27 265.69q-2.0702 1.7942-5.7966 3.5884-3.7264 1.7942-8.4189 3.3124-4.6925 1.3802-9.523 2.2082-4.8305 0.9661-9.109 0.9661-12.145 0-21.944-3.7264-9.661-3.7264-16.562-10.351-6.7627-6.6247-10.489-15.458-3.5884-8.971-3.5884-19.46 0-12.973 4.0024-22.91 4.1404-9.9371 11.179-16.7 7.1768-6.9008 16.562-10.351 9.385-3.4504 19.598-3.4504 8.971 0 16.562 2.0702 7.7288 2.0702 13.387 5.2446l-4.9685 13.94q-2.7603-1.6562-6.9008-3.0363-4.0024-1.3802-8.2809-2.2082-4.2785-0.9661-7.8668-0.9661-8.695 0-15.734 2.6223-6.9008 2.4843-11.869 7.3148-4.9685 4.8305-7.5908 11.731-2.6223 6.7627-2.6223 15.32 0 8.0049 2.6223 14.492 2.7603 6.4867 7.7288 11.179t11.731 7.3148q6.9008 2.4843 15.32 2.4843 4.8305 0 9.385-0.82809 4.6925-0.9661 8.0049-2.8983v-17.942h-19.322v-14.492h34.504z" style="font-variation-settings:'wght' 522"/></g><text x="368.21707" y="149.96312" fill="none" font-family="'Josefin Sans'" font-size="138.02px" letter-spacing="0px" stroke-width=".99999" word-spacing="0px" style="font-variant-caps:normal;font-variant-east-asian:normal;font-variant-ligatures:normal;font-variant-numeric:normal;line-height:1.25" xml:space="preserve"><tspan x="368.21707" y="149.96312" style="font-variant-caps:normal;font-variant-east-asian:normal;font-variant-ligatures:normal;font-variant-numeric:normal;font-variation-settings:'wght' 522">Climate</tspan><tspan x="368.21707" y="323.82968" dy="-49.171059" style="font-variant-caps:normal;font-variant-east-asian:normal;font-variant-ligatures:normal;font-variant-numeric:normal;font-variation-settings:'wght' 522">RAG</tspan></text></svg>
